<?xml version="1.0" encoding="iso-8859-1"?>
<!-- Uploaded to: SVG Repo, www.svgrepo.com, Generator: SVG Repo Mixer Tools -->
<svg fill="#000000" height="800px" width="800px" version="1.1" id="Capa_1" xmlns="http://www.w3.org/2000/svg" xmlns:xlink="http://www.w3.org/1999/xlink" 
	 viewBox="0 0 429.861 429.861" xml:space="preserve">
<path id="XMLID_445_" d="M92.411,347.452v72.408c0,5.523-4.477,10-10,10s-10-4.477-10-10v-48.267l-55.08,55.079
	c-3.904,3.905-10.237,3.905-14.142,0c-3.905-3.905-3.905-10.237,0-14.143l55.08-55.079l-48.267-0.001c-5.523,0-10-4.478-10-10
	s4.478-10,10-10l72.409,0.001C87.934,337.452,92.411,341.929,92.411,347.452z M371.593,357.452l48.267-0.001c5.522,0,10-4.478,10-10
	c0-5.523-4.478-10-10-10l-72.409,0.001c-5.523,0-10,4.477-10,10v72.408c0,5.523,4.477,10,10,10s10-4.477,10-10v-48.267l55.079,55.08
	c3.905,3.905,10.238,3.905,14.142,0c3.905-3.905,3.905-10.237,0-14.143L371.593,357.452z M376.328,313.918l-62.411,0.002v62.408
	c0,5.523-4.477,10-10,10s-10-4.477-10-10v-68.27l-78.986-78.986l-78.987,78.986v68.269c0,5.523-4.477,10-10,10
	c-5.523,0-10-4.477-10-10V313.92l-62.411-0.002c-5.522,0-10-4.478-10-10c0-5.522,4.478-10,10-10h0l68.264,0.002l78.99-78.99
	L64.306,78.448l-29.134,29.134c-2.607,2.607-6.439,3.569-9.969,2.5c-3.53-1.069-6.185-3.993-6.908-7.61L0.194,11.962
	C-0.461,8.684,0.565,5.295,2.929,2.93c2.365-2.364,5.754-3.392,9.032-2.735l90.512,18.101c3.616,0.723,6.541,3.378,7.61,6.908
	s0.108,7.361-2.5,9.969L78.449,64.307l136.482,136.481L351.412,64.307l-29.134-29.134c-2.607-2.608-3.568-6.439-2.5-9.969
	s3.994-6.185,7.61-6.908L417.9,0.195c3.281-0.659,6.668,0.371,9.032,2.735c2.364,2.364,3.39,5.753,2.734,9.032l-18.102,90.51
	c-0.723,3.617-3.378,6.541-6.908,7.61c-3.53,1.069-7.361,0.108-9.969-2.5l-29.134-29.133L229.073,214.93l78.99,78.99l68.264-0.002
	c5.523,0,10,4.477,10,10C386.327,309.44,381.85,313.918,376.328,313.918z M395.617,80.227l11.496-57.479l-57.479,11.495
	L395.617,80.227z M80.228,34.243l-57.48-11.495l11.496,57.479L80.228,34.243z"/>
</svg>